<svg width="12" height="12" viewBox="0 0 12 12" fill="none" xmlns="http://www.w3.org/2000/svg">
<path d="M10.9073 4.90472H7.09203V1.09264C7.09203 0.48923 6.60518 0 6.00177 0C5.39836 0 4.91177 0.48923 4.91177 1.0929V4.90736H1.09467C0.491264 4.90736 0.000712686 5.39659 0.000976992 6.00026C0.000712686 6.30184 0.122558 6.5783 0.319994 6.77574C0.517694 6.9737 0.790458 7.09872 1.09177 7.09872H4.91177V10.9079C4.91177 11.2097 5.0315 11.483 5.2292 11.6802C5.42691 11.8779 5.69888 12.0003 6.00071 12.0003C6.60386 12.0003 7.09203 11.511 7.09203 10.9079V7.09845H10.9073C11.5107 7.09845 11.9999 6.605 11.9997 6.00159C11.9994 5.39844 11.5102 4.90472 10.9073 4.90472Z" fill="white"/>
</svg>
